<svg xmlns="http://www.w3.org/2000/svg" xmlns:xlink="http://www.w3.org/1999/xlink" xmlns:lucid="lucid" width="1500" height="1211"><g transform="translate(-80 -160)" lucid:page-tab-id="0_0"><path d="M520 180h240v80H520z" stroke="#000" stroke-width="4" fill="#fff"/><use xlink:href="#a" transform="matrix(1,0,0,1,525,185) translate(37.66049382716048 26.118055555555557)"/><use xlink:href="#b" transform="matrix(1,0,0,1,525,185) translate(143.51851851851853 26.118055555555557)"/><use xlink:href="#c" transform="matrix(1,0,0,1,525,185) translate(79.08024691358025 55.45138888888889)"/><path d="M100 180h180v80H100z" stroke="#000" stroke-width="4" fill="#fff"/><use xlink:href="#d" transform="matrix(1,0,0,1,105,185) translate(45.376543209876544 40.20138888888889)"/><path d="M1000 180h180v80h-180z" stroke="#000" stroke-width="4" fill="#fff"/><use xlink:href="#e" transform="matrix(1,0,0,1,1005,185) translate(0.6296296296296191 41.020833333333336)"/><use xlink:href="#f" transform="matrix(1,0,0,1,1005,185) translate(116.11111111111113 41.020833333333336)"/><path d="M190 263v1058.5" stroke="#000" stroke-width="2" fill="none"/><path d="M191 263.03h-2V262h2z"/><path d="M190 1336.76l-4.64-14.26h9.28z" stroke="#000" stroke-width="2"/><path d="M640 263v998.5" stroke="#000" stroke-width="2" fill="none"/><path d="M641 263.03h-2V262h2z"/><path d="M640 1276.76l-4.64-14.26h9.28z" stroke="#000" stroke-width="2"/><path d="M1090 263v998.5" stroke="#000" stroke-width="2" fill="none"/><path d="M1091 263.03h-2V262h2z"/><path d="M1090 1276.76l-4.64-14.26h9.28z" stroke="#000" stroke-width="2"/><path d="M160 320h60v140h-60zM160 520h60v140h-60zM610 340h60v100h-60z" stroke="#000" stroke-width="2" fill="#fff"/><path d="M290 300h240v60H290z" stroke="#000" stroke-opacity="0" stroke-width="2" fill="#fff" fill-opacity="0"/><use xlink:href="#g" transform="matrix(1,0,0,1,295,305) translate(13.450000000000017 30.025)"/><path d="M608 427.33H239.5" stroke="#000" stroke-width="2" fill="none"/><path d="M609 428.33h-1.03v-2H609z"/><path d="M224.24 427.33l14.26-4.63v9.27z" stroke="#000" stroke-width="2"/><path d="M280 380h240v60H280z" stroke="#000" stroke-opacity="0" stroke-width="2" fill="#fff" fill-opacity="0"/><use xlink:href="#h" transform="matrix(1,0,0,1,285,385) translate(58.05 30.025)"/><use xlink:href="#i" transform="matrix(1,0,0,1,285,385) translate(136 30.025)"/><path d="M222 343.33h368.5" stroke="#000" stroke-width="2" fill="none"/><path d="M222.03 344.33H221v-2h1.03z"/><path d="M605.76 343.33l-14.26 4.64v-9.27z" stroke="#000" stroke-width="2"/><path d="M222 539.33h818.5" stroke="#000" stroke-width="2" fill="none"/><path d="M222.03 540.33H221v-2h1.03z"/><path d="M1055.76 539.33l-14.26 4.64v-9.27z" stroke="#000" stroke-width="2"/><path d="M1060 540h60v100h-60z" stroke="#000" stroke-width="2" fill="#fff"/><path d="M280 480h240v60H280z" stroke="#000" stroke-opacity="0" stroke-width="2" fill="#fff" fill-opacity="0"/><use xlink:href="#j" transform="matrix(1,0,0,1,285,485) translate(40.125 30.025)"/><path d="M160 720h60v140h-60zM610 740h60v100h-60z" stroke="#000" stroke-width="2" fill="#fff"/><path d="M1380 180h180v80h-180z" stroke="#000" stroke-width="4" fill="#fff"/><use xlink:href="#k" transform="matrix(1,0,0,1,1385,185) translate(56.925925925925924 41.020833333333336)"/><path d="M1470 263v998.5" stroke="#000" stroke-width="2" fill="none"/><path d="M1471 263.03h-2V262h2z"/><path d="M1470 1276.76l-4.64-14.26h9.28z" stroke="#000" stroke-width="2"/><path d="M222 742h368.5" stroke="#000" stroke-width="2" fill="none"/><path d="M222.03 743H221v-2h1.03z"/><path d="M605.76 742l-14.26 4.64v-9.28z" stroke="#000" stroke-width="2"/><path d="M280 680h240v60H280z" stroke="#000" stroke-opacity="0" stroke-width="2" fill="#fff" fill-opacity="0"/><use xlink:href="#l" transform="matrix(1,0,0,1,285,685) translate(75.1 30.025)"/><path d="M1440 760h60v60h-60z" stroke="#000" stroke-width="2" fill="#fff"/><path d="M672 760.67h748.5" stroke="#000" stroke-width="2" fill="none"/><path d="M672.03 761.67H671v-2h1.03z"/><path d="M1435.76 760.67l-14.26 4.63v-9.27z" stroke="#000" stroke-width="2"/><path d="M880 700h240v60H880z" stroke="#000" stroke-opacity="0" stroke-width="2" fill="#fff" fill-opacity="0"/><use xlink:href="#m" transform="matrix(1,0,0,1,885,705) translate(71.07499999999999 30.025)"/><path d="M1438 819.33H689.5" stroke="#000" stroke-width="2" fill="none"/><path d="M1439 820.33h-1.03v-2h1.03z"/><path d="M674.24 819.33l14.26-4.63v9.27z" stroke="#000" stroke-width="2"/><path d="M880 820h240v60H880z" stroke="#000" stroke-opacity="0" stroke-width="2" fill="#fff" fill-opacity="0"/><use xlink:href="#n" transform="matrix(1,0,0,1,885,825) translate(93.525 30.025)"/><path d="M160 920h60v140h-60zM610 940h60v100h-60z" stroke="#000" stroke-width="2" fill="#fff"/><path d="M222 939.33h368.5" stroke="#000" stroke-width="2" fill="none"/><path d="M222.03 940.33H221v-2h1.03z"/><path d="M605.76 939.33l-14.26 4.64v-9.27z" stroke="#000" stroke-width="2"/><path d="M280 900h240v60H280z" stroke="#000" stroke-opacity="0" stroke-width="2" fill="#fff" fill-opacity="0"/><use xlink:href="#o" transform="matrix(1,0,0,1,285,905) translate(11.675000000000011 30.025)"/><path d="M1060 960h60v60h-60z" stroke="#000" stroke-width="2" fill="#fff"/><path d="M672 960.67h368.5" stroke="#000" stroke-width="2" fill="none"/><path d="M672.03 961.67H671v-2h1.03z"/><path d="M1055.76 960.67l-14.26 4.63v-9.27z" stroke="#000" stroke-width="2"/><path d="M740 920h240v60H740z" stroke="#000" stroke-opacity="0" stroke-width="2" fill="#fff" fill-opacity="0"/><use xlink:href="#p" transform="matrix(1,0,0,1,745,925) translate(4.699999999999989 30.025)"/><use xlink:href="#q" transform="matrix(1,0,0,1,745,925) translate(73.44999999999999 30.025)"/><use xlink:href="#r" transform="matrix(1,0,0,1,745,925) translate(111.39999999999999 30.025)"/><use xlink:href="#i" transform="matrix(1,0,0,1,745,925) translate(189.35 30.025)"/><path d="M1058 1019.33H689.5" stroke="#000" stroke-width="2" fill="none"/><path d="M1059 1020.33h-1.03v-2h1.03z"/><path d="M674.24 1019.33l14.26-4.63v9.27z" stroke="#000" stroke-width="2"/><path d="M740 1020h240v60H740z" stroke="#000" stroke-opacity="0" stroke-width="2" fill="#fff" fill-opacity="0"/><use xlink:href="#n" transform="matrix(1,0,0,1,745,1025) translate(93.525 30.025)"/><path d="M608 1039.33H239.5" stroke="#000" stroke-width="2" fill="none"/><path d="M609 1040.33h-1.03v-2H609z"/><path d="M224.24 1039.33l14.26-4.63v9.27z" stroke="#000" stroke-width="2"/><path d="M280 1040h240v60H280z" stroke="#000" stroke-opacity="0" stroke-width="2" fill="#fff" fill-opacity="0"/><use xlink:href="#s" transform="matrix(1,0,0,1,285,1045) translate(61.574999999999996 30.025)"/><use xlink:href="#t" transform="matrix(1,0,0,1,285,1045) translate(113.475 30.025)"/><use xlink:href="#u" transform="matrix(1,0,0,1,285,1045) translate(133.475 30.025)"/><path d="M160 1120h60v140h-60zM610 1140h60v100h-60z" stroke="#000" stroke-width="2" fill="#fff"/><path d="M222 1143.33h368.5" stroke="#000" stroke-width="2" fill="none"/><path d="M222.03 1144.33H221v-2h1.03z"/><path d="M605.76 1143.33l-14.26 4.64v-9.27z" stroke="#000" stroke-width="2"/><path d="M280 1100h240v60H280z" stroke="#000" stroke-opacity="0" stroke-width="2" fill="#fff" fill-opacity="0"/><g><use xlink:href="#v" transform="matrix(1,0,0,1,285,1105) translate(35.150000000000006 30.025)"/></g><path d="M1060 1160h60v60h-60z" stroke="#000" stroke-width="2" fill="#fff"/><path d="M672 1163.33h368.5" stroke="#000" stroke-width="2" fill="none"/><path d="M672.03 1164.33H671v-2h1.03z"/><path d="M1055.76 1163.33l-14.26 4.64v-9.27z" stroke="#000" stroke-width="2"/><path d="M745 1100h240v60H745z" stroke="#000" stroke-opacity="0" stroke-width="2" fill="#fff" fill-opacity="0"/><g><use xlink:href="#w" transform="matrix(1,0,0,1,750,1105) translate(57.574999999999996 30.025)"/><use xlink:href="#x" transform="matrix(1,0,0,1,750,1105) translate(86.57499999999999 30.025)"/></g><defs><path d="M160-131c35 5 61 23 61 61C221 17 115-2 30 0v-248c76 3 177-17 177 60 0 33-19 50-47 57zm-97-11c50-1 110 9 110-42 0-47-63-36-110-37v79zm0 115c55-2 124 14 124-45 0-56-70-42-124-44v89" id="y"/><path d="M84 4C-5 8 30-112 23-190h32v120c0 31 7 50 39 49 72-2 45-101 50-169h31l1 190h-30c-1-10 1-25-2-33-11 22-28 36-60 37" id="z"/><path d="M135-143c-3-34-86-38-87 0 15 53 115 12 119 90S17 21 10-45l28-5c4 36 97 45 98 0-10-56-113-15-118-90-4-57 82-63 122-42 12 7 21 19 24 35" id="A"/><path d="M24-231v-30h32v30H24zM24 0v-190h32V0H24" id="B"/><path d="M117-194c89-4 53 116 60 194h-32v-121c0-31-8-49-39-48C34-167 62-67 57 0H25l-1-190h30c1 10-1 24 2 32 11-22 29-35 61-36" id="C"/><path d="M100-194c63 0 86 42 84 106H49c0 40 14 67 53 68 26 1 43-12 49-29l28 8c-11 28-37 45-77 45C44 4 14-33 15-96c1-61 26-98 85-98zm52 81c6-60-76-77-97-28-3 7-6 17-6 28h103" id="D"/><g id="a"><use transform="matrix(0.06790123456790124,0,0,0.06790123456790124,0,0)" xlink:href="#y"/><use transform="matrix(0.06790123456790124,0,0,0.06790123456790124,16.296296296296298,0)" xlink:href="#z"/><use transform="matrix(0.06790123456790124,0,0,0.06790123456790124,29.876543209876544,0)" xlink:href="#A"/><use transform="matrix(0.06790123456790124,0,0,0.06790123456790124,42.098765432098766,0)" xlink:href="#B"/><use transform="matrix(0.06790123456790124,0,0,0.06790123456790124,47.46296296296296,0)" xlink:href="#C"/><use transform="matrix(0.06790123456790124,0,0,0.06790123456790124,61.04320987654321,0)" xlink:href="#D"/><use transform="matrix(0.06790123456790124,0,0,0.06790123456790124,74.62345679012346,0)" xlink:href="#A"/><use transform="matrix(0.06790123456790124,0,0,0.06790123456790124,86.84567901234567,0)" xlink:href="#A"/></g><path d="M30-248c87 1 191-15 191 75 0 78-77 80-158 76V0H30v-248zm33 125c57 0 124 11 124-50 0-59-68-47-124-48v98" id="E"/><path d="M24 0v-261h32V0H24" id="F"/><path d="M141-36C126-15 110 5 73 4 37 3 15-17 15-53c-1-64 63-63 125-63 3-35-9-54-41-54-24 1-41 7-42 31l-33-3c5-37 33-52 76-52 45 0 72 20 72 64v82c-1 20 7 32 28 27v20c-31 9-61-2-59-35zM48-53c0 20 12 33 32 33 41-3 63-29 60-74-43 2-92-5-92 41" id="G"/><g id="b"><use transform="matrix(0.06790123456790124,0,0,0.06790123456790124,0,0)" xlink:href="#E"/><use transform="matrix(0.06790123456790124,0,0,0.06790123456790124,16.296296296296298,0)" xlink:href="#F"/><use transform="matrix(0.06790123456790124,0,0,0.06790123456790124,21.660493827160497,0)" xlink:href="#G"/><use transform="matrix(0.06790123456790124,0,0,0.06790123456790124,35.24074074074075,0)" xlink:href="#C"/></g><path d="M185-189c-5-48-123-54-124 2 14 75 158 14 163 119 3 78-121 87-175 55-17-10-28-26-33-46l33-7c5 56 141 63 141-1 0-78-155-14-162-118-5-82 145-84 179-34 5 7 8 16 11 25" id="H"/><path d="M114-163C36-179 61-72 57 0H25l-1-190h30c1 12-1 29 2 39 6-27 23-49 58-41v29" id="I"/><path d="M108 0H70L1-190h34L89-25l56-165h34" id="J"/><g id="c"><use transform="matrix(0.06790123456790124,0,0,0.06790123456790124,0,0)" xlink:href="#H"/><use transform="matrix(0.06790123456790124,0,0,0.06790123456790124,16.296296296296298,0)" xlink:href="#D"/><use transform="matrix(0.06790123456790124,0,0,0.06790123456790124,29.876543209876544,0)" xlink:href="#I"/><use transform="matrix(0.06790123456790124,0,0,0.06790123456790124,37.95679012345679,0)" xlink:href="#J"/><use transform="matrix(0.06790123456790124,0,0,0.06790123456790124,50.17901234567901,0)" xlink:href="#D"/><use transform="matrix(0.06790123456790124,0,0,0.06790123456790124,63.75925925925926,0)" xlink:href="#I"/></g><path d="M212-179c-10-28-35-45-73-45-59 0-87 40-87 99 0 60 29 101 89 101 43 0 62-24 78-52l27 14C228-24 195 4 139 4 59 4 22-46 18-125c-6-104 99-153 187-111 19 9 31 26 39 46" id="K"/><path d="M59-47c-2 24 18 29 38 22v24C64 9 27 4 27-40v-127H5v-23h24l9-43h21v43h35v23H59v120" id="L"/><g id="d"><use transform="matrix(0.08641975308641976,0,0,0.08641975308641976,0,0)" xlink:href="#K"/><use transform="matrix(0.08641975308641976,0,0,0.08641975308641976,22.38271604938272,0)" xlink:href="#F"/><use transform="matrix(0.08641975308641976,0,0,0.08641975308641976,29.20987654320988,0)" xlink:href="#B"/><use transform="matrix(0.08641975308641976,0,0,0.08641975308641976,36.03703703703704,0)" xlink:href="#D"/><use transform="matrix(0.08641975308641976,0,0,0.08641975308641976,53.32098765432098,0)" xlink:href="#C"/><use transform="matrix(0.08641975308641976,0,0,0.08641975308641976,70.60493827160494,0)" xlink:href="#L"/></g><g id="e"><use transform="matrix(0.07407407407407408,0,0,0.07407407407407408,0,0)" xlink:href="#y"/><use transform="matrix(0.07407407407407408,0,0,0.07407407407407408,17.77777777777778,0)" xlink:href="#z"/><use transform="matrix(0.07407407407407408,0,0,0.07407407407407408,32.592592592592595,0)" xlink:href="#A"/><use transform="matrix(0.07407407407407408,0,0,0.07407407407407408,45.92592592592593,0)" xlink:href="#B"/><use transform="matrix(0.07407407407407408,0,0,0.07407407407407408,51.777777777777786,0)" xlink:href="#C"/><use transform="matrix(0.07407407407407408,0,0,0.07407407407407408,66.59259259259261,0)" xlink:href="#D"/><use transform="matrix(0.07407407407407408,0,0,0.07407407407407408,81.40740740740742,0)" xlink:href="#A"/><use transform="matrix(0.07407407407407408,0,0,0.07407407407407408,94.74074074074078,0)" xlink:href="#A"/></g><g id="f"><use transform="matrix(0.07407407407407408,0,0,0.07407407407407408,0,0)" xlink:href="#E"/><use transform="matrix(0.07407407407407408,0,0,0.07407407407407408,17.77777777777778,0)" xlink:href="#F"/><use transform="matrix(0.07407407407407408,0,0,0.07407407407407408,23.629629629629633,0)" xlink:href="#G"/><use transform="matrix(0.07407407407407408,0,0,0.07407407407407408,38.44444444444445,0)" xlink:href="#C"/></g><path d="M177-190C167-65 218 103 67 71c-23-6-38-20-44-43l32-5c15 47 100 32 89-28v-30C133-14 115 1 83 1 29 1 15-40 15-95c0-56 16-97 71-98 29-1 48 16 59 35 1-10 0-23 2-32h30zM94-22c36 0 50-32 50-73 0-42-14-75-50-75-39 0-46 34-46 75s6 73 46 73" id="M"/><path d="M179-190L93 31C79 59 56 82 12 73V49c39 6 53-20 64-50L1-190h34L92-34l54-156h33" id="N"/><path d="M137-103V0h-34v-103L8-248h37l75 118 75-118h37" id="O"/><path d="M87 75C49 33 22-17 22-94c0-76 28-126 65-167h31c-38 41-64 92-64 168S80 34 118 75H87" id="P"/><path d="M33-261c38 41 65 92 65 168S71 34 33 75H2C39 34 66-17 66-93S39-220 2-261h31" id="Q"/><g id="g"><use transform="matrix(0.05,0,0,0.05,0,0)" xlink:href="#M"/><use transform="matrix(0.05,0,0,0.05,10,0)" xlink:href="#D"/><use transform="matrix(0.05,0,0,0.05,20,0)" xlink:href="#L"/><use transform="matrix(0.05,0,0,0.05,25,0)" xlink:href="#y"/><use transform="matrix(0.05,0,0,0.05,37,0)" xlink:href="#z"/><use transform="matrix(0.05,0,0,0.05,47,0)" xlink:href="#A"/><use transform="matrix(0.05,0,0,0.05,56,0)" xlink:href="#B"/><use transform="matrix(0.05,0,0,0.05,59.95,0)" xlink:href="#C"/><use transform="matrix(0.05,0,0,0.05,69.95,0)" xlink:href="#D"/><use transform="matrix(0.05,0,0,0.05,79.95,0)" xlink:href="#A"/><use transform="matrix(0.05,0,0,0.05,88.95,0)" xlink:href="#A"/><use transform="matrix(0.05,0,0,0.05,97.95,0)" xlink:href="#E"/><use transform="matrix(0.05,0,0,0.05,109.95,0)" xlink:href="#F"/><use transform="matrix(0.05,0,0,0.05,113.9,0)" xlink:href="#G"/><use transform="matrix(0.05,0,0,0.05,123.9,0)" xlink:href="#C"/><use transform="matrix(0.05,0,0,0.05,133.9,0)" xlink:href="#y"/><use transform="matrix(0.05,0,0,0.05,145.9,0)" xlink:href="#N"/><use transform="matrix(0.05,0,0,0.05,154.9,0)" xlink:href="#O"/><use transform="matrix(0.05,0,0,0.05,165.25,0)" xlink:href="#D"/><use transform="matrix(0.05,0,0,0.05,175.25,0)" xlink:href="#G"/><use transform="matrix(0.05,0,0,0.05,185.25,0)" xlink:href="#I"/><use transform="matrix(0.05,0,0,0.05,191.2,0)" xlink:href="#P"/><use transform="matrix(0.05,0,0,0.05,197.14999999999998,0)" xlink:href="#Q"/></g><g id="h"><use transform="matrix(0.05,0,0,0.05,0,0)" xlink:href="#y"/><use transform="matrix(0.05,0,0,0.05,12,0)" xlink:href="#z"/><use transform="matrix(0.05,0,0,0.05,22,0)" xlink:href="#A"/><use transform="matrix(0.05,0,0,0.05,31,0)" xlink:href="#B"/><use transform="matrix(0.05,0,0,0.05,34.95,0)" xlink:href="#C"/><use transform="matrix(0.05,0,0,0.05,44.95,0)" xlink:href="#D"/><use transform="matrix(0.05,0,0,0.05,54.95,0)" xlink:href="#A"/><use transform="matrix(0.05,0,0,0.05,63.95,0)" xlink:href="#A"/></g><g id="i"><use transform="matrix(0.05,0,0,0.05,0,0)" xlink:href="#E"/><use transform="matrix(0.05,0,0,0.05,12,0)" xlink:href="#F"/><use transform="matrix(0.05,0,0,0.05,15.949999999999998,0)" xlink:href="#G"/><use transform="matrix(0.05,0,0,0.05,25.950000000000003,0)" xlink:href="#C"/></g><path d="M85-194c31 0 48 13 60 33l-1-100h32l1 261h-30c-2-10 0-23-3-31C134-8 116 4 85 4 32 4 16-35 15-94c0-66 23-100 70-100zm9 24c-40 0-46 34-46 75 0 40 6 74 45 74 42 0 51-32 51-76 0-42-9-74-50-73" id="R"/><g id="j"><use transform="matrix(0.05,0,0,0.05,0,0)" xlink:href="#D"/><use transform="matrix(0.05,0,0,0.05,10,0)" xlink:href="#R"/><use transform="matrix(0.05,0,0,0.05,20,0)" xlink:href="#B"/><use transform="matrix(0.05,0,0,0.05,23.95,0)" xlink:href="#L"/><use transform="matrix(0.05,0,0,0.05,28.950000000000003,0)" xlink:href="#y"/><use transform="matrix(0.05,0,0,0.05,40.95,0)" xlink:href="#z"/><use transform="matrix(0.05,0,0,0.05,50.95,0)" xlink:href="#A"/><use transform="matrix(0.05,0,0,0.05,59.95,0)" xlink:href="#B"/><use transform="matrix(0.05,0,0,0.05,63.900000000000006,0)" xlink:href="#C"/><use transform="matrix(0.05,0,0,0.05,73.9,0)" xlink:href="#D"/><use transform="matrix(0.05,0,0,0.05,83.9,0)" xlink:href="#A"/><use transform="matrix(0.05,0,0,0.05,92.9,0)" xlink:href="#A"/><use transform="matrix(0.05,0,0,0.05,101.9,0)" xlink:href="#E"/><use transform="matrix(0.05,0,0,0.05,113.9,0)" xlink:href="#F"/><use transform="matrix(0.05,0,0,0.05,117.85000000000001,0)" xlink:href="#G"/><use transform="matrix(0.05,0,0,0.05,127.85000000000001,0)" xlink:href="#C"/><use transform="matrix(0.05,0,0,0.05,137.85000000000002,0)" xlink:href="#P"/><use transform="matrix(0.05,0,0,0.05,143.8,0)" xlink:href="#Q"/></g><path d="M232-93c-1 65-40 97-104 97C67 4 28-28 28-90v-158h33c8 89-33 224 67 224 102 0 64-133 71-224h33v155" id="S"/><g id="k"><use transform="matrix(0.07407407407407408,0,0,0.07407407407407408,0,0)" xlink:href="#S"/><use transform="matrix(0.07407407407407408,0,0,0.07407407407407408,19.185185185185187,0)" xlink:href="#A"/><use transform="matrix(0.07407407407407408,0,0,0.07407407407407408,32.51851851851852,0)" xlink:href="#D"/><use transform="matrix(0.07407407407407408,0,0,0.07407407407407408,47.33333333333334,0)" xlink:href="#I"/></g><g id="l"><use transform="matrix(0.05,0,0,0.05,0,0)" xlink:href="#G"/><use transform="matrix(0.05,0,0,0.05,10,0)" xlink:href="#R"/><use transform="matrix(0.05,0,0,0.05,20,0)" xlink:href="#R"/><use transform="matrix(0.05,0,0,0.05,30,0)" xlink:href="#S"/><use transform="matrix(0.05,0,0,0.05,42.95,0)" xlink:href="#A"/><use transform="matrix(0.05,0,0,0.05,51.95,0)" xlink:href="#D"/><use transform="matrix(0.05,0,0,0.05,61.95,0)" xlink:href="#I"/><use transform="matrix(0.05,0,0,0.05,67.9,0)" xlink:href="#P"/><use transform="matrix(0.05,0,0,0.05,73.85000000000001,0)" xlink:href="#Q"/></g><path d="M96-169c-40 0-48 33-48 73s9 75 48 75c24 0 41-14 43-38l32 2c-6 37-31 61-74 61-59 0-76-41-82-99-10-93 101-131 147-64 4 7 5 14 7 22l-32 3c-4-21-16-35-41-35" id="T"/><g id="m"><use transform="matrix(0.05,0,0,0.05,0,0)" xlink:href="#T"/><use transform="matrix(0.05,0,0,0.05,9,0)" xlink:href="#I"/><use transform="matrix(0.05,0,0,0.05,14.949999999999998,0)" xlink:href="#D"/><use transform="matrix(0.05,0,0,0.05,24.95,0)" xlink:href="#G"/><use transform="matrix(0.05,0,0,0.05,34.95,0)" xlink:href="#L"/><use transform="matrix(0.05,0,0,0.05,39.95,0)" xlink:href="#D"/><use transform="matrix(0.05,0,0,0.05,49.95,0)" xlink:href="#S"/><use transform="matrix(0.05,0,0,0.05,62.900000000000006,0)" xlink:href="#A"/><use transform="matrix(0.05,0,0,0.05,71.9,0)" xlink:href="#D"/><use transform="matrix(0.05,0,0,0.05,81.9,0)" xlink:href="#I"/></g><path d="M100-194c62-1 85 37 85 99 1 63-27 99-86 99S16-35 15-95c0-66 28-99 85-99zM99-20c44 1 53-31 53-75 0-43-8-75-51-75s-53 32-53 75 10 74 51 75" id="U"/><g id="n"><use transform="matrix(0.05,0,0,0.05,0,0)" xlink:href="#H"/><use transform="matrix(0.05,0,0,0.05,12,0)" xlink:href="#L"/><use transform="matrix(0.05,0,0,0.05,17,0)" xlink:href="#U"/><use transform="matrix(0.05,0,0,0.05,27,0)" xlink:href="#I"/><use transform="matrix(0.05,0,0,0.05,32.95,0)" xlink:href="#D"/></g><path d="M190 0L58-211 59 0H30v-248h39L202-35l-2-213h31V0h-41" id="V"/><path d="M206 0h-36l-40-164L89 0H53L-1-190h32L70-26l43-164h34l41 164 42-164h31" id="W"/><g id="o"><use transform="matrix(0.05,0,0,0.05,0,0)" xlink:href="#T"/><use transform="matrix(0.05,0,0,0.05,9,0)" xlink:href="#I"/><use transform="matrix(0.05,0,0,0.05,14.949999999999998,0)" xlink:href="#D"/><use transform="matrix(0.05,0,0,0.05,24.95,0)" xlink:href="#G"/><use transform="matrix(0.05,0,0,0.05,34.95,0)" xlink:href="#L"/><use transform="matrix(0.05,0,0,0.05,39.95,0)" xlink:href="#D"/><use transform="matrix(0.05,0,0,0.05,49.95,0)" xlink:href="#V"/><use transform="matrix(0.05,0,0,0.05,62.900000000000006,0)" xlink:href="#D"/><use transform="matrix(0.05,0,0,0.05,72.9,0)" xlink:href="#W"/><use transform="matrix(0.05,0,0,0.05,85.85000000000001,0)" xlink:href="#y"/><use transform="matrix(0.05,0,0,0.05,97.85000000000001,0)" xlink:href="#z"/><use transform="matrix(0.05,0,0,0.05,107.85000000000001,0)" xlink:href="#A"/><use transform="matrix(0.05,0,0,0.05,116.85000000000001,0)" xlink:href="#B"/><use transform="matrix(0.05,0,0,0.05,120.80000000000001,0)" xlink:href="#C"/><use transform="matrix(0.05,0,0,0.05,130.8,0)" xlink:href="#D"/><use transform="matrix(0.05,0,0,0.05,140.8,0)" xlink:href="#A"/><use transform="matrix(0.05,0,0,0.05,149.8,0)" xlink:href="#A"/><use transform="matrix(0.05,0,0,0.05,158.8,0)" xlink:href="#E"/><use transform="matrix(0.05,0,0,0.05,170.8,0)" xlink:href="#F"/><use transform="matrix(0.05,0,0,0.05,174.75,0)" xlink:href="#G"/><use transform="matrix(0.05,0,0,0.05,184.75,0)" xlink:href="#C"/><use transform="matrix(0.05,0,0,0.05,194.75,0)" xlink:href="#P"/><use transform="matrix(0.05,0,0,0.05,200.7,0)" xlink:href="#Q"/></g><path d="M9 0v-24l116-142H16v-24h144v24L44-24h123V0H9" id="X"/><g id="p"><use transform="matrix(0.05,0,0,0.05,0,0)" xlink:href="#B"/><use transform="matrix(0.05,0,0,0.05,3.95,0)" xlink:href="#C"/><use transform="matrix(0.05,0,0,0.05,13.949999999999998,0)" xlink:href="#B"/><use transform="matrix(0.05,0,0,0.05,17.9,0)" xlink:href="#L"/><use transform="matrix(0.05,0,0,0.05,22.9,0)" xlink:href="#B"/><use transform="matrix(0.05,0,0,0.05,26.849999999999994,0)" xlink:href="#G"/><use transform="matrix(0.05,0,0,0.05,36.849999999999994,0)" xlink:href="#F"/><use transform="matrix(0.05,0,0,0.05,40.8,0)" xlink:href="#B"/><use transform="matrix(0.05,0,0,0.05,44.75,0)" xlink:href="#X"/><use transform="matrix(0.05,0,0,0.05,53.75,0)" xlink:href="#D"/></g><g id="q"><use transform="matrix(0.05,0,0,0.05,0,0)" xlink:href="#C"/><use transform="matrix(0.05,0,0,0.05,10,0)" xlink:href="#D"/><use transform="matrix(0.05,0,0,0.05,20,0)" xlink:href="#W"/></g><g id="r"><use transform="matrix(0.05,0,0,0.05,0,0)" xlink:href="#y"/><use transform="matrix(0.05,0,0,0.05,12,0)" xlink:href="#z"/><use transform="matrix(0.05,0,0,0.05,22,0)" xlink:href="#A"/><use transform="matrix(0.05,0,0,0.05,31,0)" xlink:href="#B"/><use transform="matrix(0.05,0,0,0.05,34.95,0)" xlink:href="#C"/><use transform="matrix(0.05,0,0,0.05,44.95,0)" xlink:href="#D"/><use transform="matrix(0.05,0,0,0.05,54.95,0)" xlink:href="#A"/><use transform="matrix(0.05,0,0,0.05,63.95,0)" xlink:href="#A"/></g><g id="s"><use transform="matrix(0.05,0,0,0.05,0,0)" xlink:href="#I"/><use transform="matrix(0.05,0,0,0.05,5.95,0)" xlink:href="#D"/><use transform="matrix(0.05,0,0,0.05,15.949999999999998,0)" xlink:href="#L"/><use transform="matrix(0.05,0,0,0.05,20.95,0)" xlink:href="#z"/><use transform="matrix(0.05,0,0,0.05,30.950000000000003,0)" xlink:href="#I"/><use transform="matrix(0.05,0,0,0.05,36.9,0)" xlink:href="#C"/></g><g id="t"><use transform="matrix(0.05,0,0,0.05,0,0)" xlink:href="#L"/><use transform="matrix(0.05,0,0,0.05,5,0)" xlink:href="#U"/></g><g id="u"><use transform="matrix(0.05,0,0,0.05,0,0)" xlink:href="#z"/><use transform="matrix(0.05,0,0,0.05,10,0)" xlink:href="#A"/><use transform="matrix(0.05,0,0,0.05,19,0)" xlink:href="#D"/><use transform="matrix(0.05,0,0,0.05,29,0)" xlink:href="#I"/></g><path d="M106-169C34-169 62-67 57 0H25v-261h32l-1 103c12-21 28-36 61-36 89 0 53 116 60 194h-32v-121c2-32-8-49-39-48" id="Y"/><path d="M210-169c-67 3-38 105-44 169h-31v-121c0-29-5-50-35-48C34-165 62-65 56 0H25l-1-190h30c1 10-1 24 2 32 10-44 99-50 107 0 11-21 27-35 58-36 85-2 47 119 55 194h-31v-121c0-29-5-49-35-48" id="Z"/><g id="v"><use transform="matrix(0.05,0,0,0.05,0,0)" xlink:href="#T"/><use transform="matrix(0.05,0,0,0.05,9,0)" xlink:href="#Y"/><use transform="matrix(0.05,0,0,0.05,19,0)" xlink:href="#G"/><use transform="matrix(0.05,0,0,0.05,29,0)" xlink:href="#C"/><use transform="matrix(0.05,0,0,0.05,39,0)" xlink:href="#M"/><use transform="matrix(0.05,0,0,0.05,49,0)" xlink:href="#D"/><use transform="matrix(0.05,0,0,0.05,59,0)" xlink:href="#E"/><use transform="matrix(0.05,0,0,0.05,71,0)" xlink:href="#D"/><use transform="matrix(0.05,0,0,0.05,81,0)" xlink:href="#I"/><use transform="matrix(0.05,0,0,0.05,86.95,0)" xlink:href="#Z"/><use transform="matrix(0.05,0,0,0.05,101.9,0)" xlink:href="#B"/><use transform="matrix(0.05,0,0,0.05,105.85000000000001,0)" xlink:href="#A"/><use transform="matrix(0.05,0,0,0.05,114.85000000000001,0)" xlink:href="#A"/><use transform="matrix(0.05,0,0,0.05,123.85000000000001,0)" xlink:href="#B"/><use transform="matrix(0.05,0,0,0.05,127.80000000000001,0)" xlink:href="#U"/><use transform="matrix(0.05,0,0,0.05,137.8,0)" xlink:href="#C"/><use transform="matrix(0.05,0,0,0.05,147.8,0)" xlink:href="#P"/><use transform="matrix(0.05,0,0,0.05,153.75,0)" xlink:href="#Q"/></g><g id="w"><use transform="matrix(0.05,0,0,0.05,0,0)" xlink:href="#A"/><use transform="matrix(0.05,0,0,0.05,9,0)" xlink:href="#D"/><use transform="matrix(0.05,0,0,0.05,19,0)" xlink:href="#L"/></g><path d="M-5 72V49h209v23H-5" id="aa"/><path d="M115-194c53 0 69 39 70 98 0 66-23 100-70 100C84 3 66-7 56-30L54 0H23l1-261h32v101c10-23 28-34 59-34zm-8 174c40 0 45-34 45-75 0-40-5-75-45-74-42 0-51 32-51 76 0 43 10 73 51 73" id="ab"/><g id="x"><use transform="matrix(0.05,0,0,0.05,0,0)" xlink:href="#B"/><use transform="matrix(0.05,0,0,0.05,3.95,0)" xlink:href="#A"/><use transform="matrix(0.05,0,0,0.05,12.949999999999998,0)" xlink:href="#aa"/><use transform="matrix(0.05,0,0,0.05,22.95,0)" xlink:href="#D"/><use transform="matrix(0.05,0,0,0.05,32.95,0)" xlink:href="#R"/><use transform="matrix(0.05,0,0,0.05,42.95,0)" xlink:href="#B"/><use transform="matrix(0.05,0,0,0.05,46.900000000000006,0)" xlink:href="#L"/><use transform="matrix(0.05,0,0,0.05,51.900000000000006,0)" xlink:href="#G"/><use transform="matrix(0.05,0,0,0.05,61.900000000000006,0)" xlink:href="#ab"/><use transform="matrix(0.05,0,0,0.05,71.9,0)" xlink:href="#F"/><use transform="matrix(0.05,0,0,0.05,75.85000000000001,0)" xlink:href="#D"/></g></defs></g></svg>